<svg width="204" height="29" viewBox="0 0 204 29" fill="none" xmlns="http://www.w3.org/2000/svg">
<g clip-path="url(#clip0_1485_7245)">
<path d="M59.9595 16.0553H58.153L55.6896 13.647V2.40861L58.153 0.000301831H59.9595V16.055V16.0553ZM67.1848 0.000603662L69.6482 2.40891V4.81722H66.5281L65.2144 3.53293H60.6161V0.000603662H67.1851H67.1848ZM65.2144 12.523L66.5281 11.2387H69.6482V13.647L67.1848 16.0553H60.6158V12.5233H65.2141L65.2144 12.523ZM79.1733 16.0553H77.3669L74.9035 13.647V2.40861L77.3669 0.000301831H79.1733V16.055V16.0553ZM86.8914 0.000603662L89.3548 2.40891V13.6473L86.8914 16.0556H79.8297V12.5236H85.0847V3.53263H79.8297V0.000603662H86.8914ZM98.8799 16.0553H97.0735L94.6101 13.647V0H98.8799V16.0547V16.0553ZM99.5369 0.000603662H108.569V3.53263H99.5369V0.000603662ZM107.255 6.26148V9.7935H99.5363V6.26148H107.255ZM99.5369 16.0553V12.5233H108.569V16.0553H99.5369ZM118.094 16.0553H116.287L113.824 13.647V0H118.094V16.0547V16.0553ZM124.005 0.000603662H128.275V13.6473L125.812 16.0556H118.75V12.5236H124.005V0.000603662H124.005ZM137.8 6.26148H145.847L148.31 8.66979V13.6467L145.847 16.055H144.041V9.7935H135.994L133.53 7.3852V2.40831L135.994 0H137.8V6.26148ZM145.847 0.000603662L148.31 2.40891V4.81722H145.19L143.877 3.53293H138.457V0.000603662H145.847H145.847ZM143.384 12.523V16.055H135.994L133.53 13.6467V11.2384H136.65L137.964 12.5227H143.383L143.384 12.523Z" fill="#057A55"/>
<path d="M61.4999 24.3731H60.3793V20.1587H61.4999V24.3731ZM64.259 20.7911V22.2661L63.6125 22.8981L64.259 23.8676V24.3731H63.2244L62.3278 22.9402H61.6726V22.0131H63.1384V21.0861H61.6726V20.159H63.6125L64.259 20.7911ZM67.0611 24.3731V23.5302H67.4059V21.0016H67.0611V20.1587H68.8716V21.0016H68.5269V23.5302H68.8716V24.3731H67.0611ZM72.7944 21.8026H74.9066L75.5531 22.4346V23.7411L74.9066 24.3731H74.4325V22.7296H72.3202L71.6737 22.0976V20.7911L72.3202 20.159H72.7944V21.8026ZM74.9066 20.1587L75.5531 20.7907V21.4228H74.7343L74.3895 21.0857H72.9668V20.1587H74.9066ZM74.2601 23.4461V24.3731H72.3202L71.6737 23.7411V23.109H72.4926L72.8374 23.4461H74.2601ZM79.6053 24.3731H78.4846V20.1587H79.6053V24.3731ZM82.3644 20.1587V20.6643L81.3558 22.2657L82.3644 23.8672V24.3728H81.3297L80.3468 22.7293H79.821V21.8022H80.3468L81.3297 20.1587H82.3644ZM90.5116 21.8026H92.6239L93.2704 22.4346V23.7411L92.6239 24.3731H92.1497V22.7296H90.0375L89.391 22.0976V20.7911L90.0375 20.159H90.5116V21.8026ZM92.6239 20.1587L93.2704 20.7907V21.4228H92.4515L92.1067 21.0857H90.684V20.1587H92.6239ZM91.9774 23.4461V24.3731H90.0375L89.391 23.7411V23.109H90.2099L90.5546 23.4461H91.9774ZM97.3228 24.3731H96.8487L96.2022 23.7411V20.7911L96.8487 20.159H97.3228V24.3735V24.3731ZM99.3487 20.1587L99.9952 20.7907V23.7408L99.3487 24.3728H97.4952V23.4458H98.8746V21.0857H97.4952V20.1587H99.3487ZM104.048 24.3731H103.574L102.927 23.7411V20.1587H104.048V24.3731ZM104.22 23.4461H106.375V24.3731H104.22V23.4461ZM110.212 24.3731H109.738L109.091 23.7411V20.1587H110.212V24.3731ZM111.764 20.1587H112.884V23.7411L112.238 24.3731H110.384V23.4461H111.764V20.1587ZM116.609 20.1587V21.0857H115.514V20.1587H116.609ZM116.782 20.1587H119.178V21.0857H117.902V24.3731H116.782V20.1587ZM121.679 24.3731V23.5302H122.023V21.0016H121.679V20.1587H123.489V21.0016H123.144V23.5302H123.489V24.3731H121.679ZM127.412 24.3731H126.938L126.292 23.7411V20.7911L126.938 20.159H127.412V24.3735V24.3731ZM129.438 20.1587L130.085 20.7907V23.7408L129.438 24.3728H127.585V23.4458H128.964V21.0857H127.585V20.1587H129.438ZM135.689 20.1587H136.809V24.3731H135.818L133.016 20.4367V20.1587H134.007L135.688 22.5017V20.1587H135.689ZM133.016 20.7151L134.137 22.283V24.3735H133.016V20.7155V20.7151ZM140.862 21.8026H142.974L143.62 22.4346V23.7411L142.974 24.3731H142.5V22.7296H140.387L139.741 22.0976V20.7911L140.387 20.159H140.862V21.8026ZM142.974 20.1587L143.621 20.7907V21.4228H142.802L142.457 21.0857H141.034V20.1587H142.974ZM142.327 23.4461V24.3731H140.387L139.741 23.7411V23.109H140.56L140.905 23.4461H142.327Z" fill="#057A55"/>
</g>
<defs>
<clipPath id="clip0_1485_7245">
<rect width="136" height="28.1379" fill="white" transform="translate(34)"/>
</clipPath>
</defs>
</svg>
