<svg width="100" height="30" viewBox="0 0 30 30" fill="none" xmlns="http://www.w3.org/2000/svg" transform="translate(-22, 0)">
  <path d="M29.8369 15.8584C29.9991 15.4482 30.0415 14.9969 29.9588 14.5614C29.876 14.126 29.6717 13.726 29.3719 13.4122L20.7999 4.43515C20.6022 4.2208 20.3657 4.04982 20.1043 3.9322C19.8428 3.81458 19.5616 3.75267 19.2771 3.75008C18.9925 3.7475 18.7103 3.80428 18.447 3.91712C18.1836 4.02997 17.9443 4.19661 17.7431 4.40733C17.5419 4.61805 17.3828 4.86862 17.275 5.14444C17.1673 5.42025 17.1131 5.71577 17.1155 6.01376C17.118 6.31175 17.1771 6.60624 17.2894 6.88005C17.4018 7.15386 17.565 7.4015 17.7697 7.60853L22.6857 12.7569H2.14299C1.57464 12.7569 1.02956 12.9933 0.627668 13.4142C0.225779 13.8351 0 14.4059 0 15.0011C0 15.5963 0.225779 16.1672 0.627668 16.5881C1.02956 17.0089 1.57464 17.2454 2.14299 17.2454H22.6857L17.7718 22.3915C17.5672 22.5985 17.4039 22.8461 17.2916 23.1199C17.1793 23.3938 17.1202 23.6882 17.1177 23.9862C17.1152 24.2842 17.1694 24.5798 17.2772 24.8556C17.3849 25.1314 17.5441 25.382 17.7453 25.5927C17.9465 25.8034 18.1858 25.97 18.4491 26.0829C18.7125 26.1957 18.9947 26.2525 19.2792 26.2499C19.5638 26.2473 19.845 26.1854 20.1064 26.0678C20.3679 25.9502 20.6043 25.7792 20.802 25.5649L29.374 16.5878C29.5725 16.3789 29.7298 16.131 29.8369 15.8584Z" fill="#D1D5DB"/>
  </svg>
  