<svg width="16" height="12" viewBox="0 0 16 12" fill="none" xmlns="http://www.w3.org/2000/svg">
<path d="M1.13836 5.85913L1.07343 6.04505L1.15272 6.22532C1.75877 7.60309 2.72542 8.76938 3.94124 9.58031C5.15498 10.3898 6.56421 10.8097 8 10.7858C9.43579 10.8097 10.845 10.3898 12.0588 9.58031C13.2746 8.76938 14.2412 7.60309 14.8473 6.22532L14.9266 6.04505L14.8616 5.85913C14.7609 5.57061 14.4953 5.14425 14.1412 4.6917C13.7757 4.22473 13.2826 3.68764 12.6878 3.17775C11.5077 2.16609 9.87059 1.21429 8 1.21429C6.12941 1.21429 4.49229 2.16609 3.31218 3.17775C2.71738 3.68764 2.22429 4.22473 1.85885 4.6917C1.50468 5.14425 1.23914 5.57061 1.13836 5.85913ZM9.75461 7.21699L9.33035 6.95241L9.75461 7.21699C9.98098 6.854 10.1 6.43057 10.1 6C10.1 5.42344 9.88655 4.86414 9.4969 4.44666C9.10616 4.02801 8.56852 3.78571 8 3.78571C7.57666 3.78571 7.16598 3.9204 6.82003 4.16807C6.47457 4.41539 6.21027 4.76317 6.05543 5.16368C5.90067 5.564 5.86062 6.00274 5.93914 6.42571C6.01768 6.84875 6.21227 7.24173 6.5031 7.55334C6.79428 7.86531 7.16957 8.08212 7.58364 8.17036C7.99804 8.25868 8.42717 8.21298 8.81512 8.04081C9.20255 7.86887 9.52806 7.58026 9.75461 7.21699ZM8 8.92857C7.47399 8.92857 6.95664 8.76163 6.51323 8.4442C6.06934 8.12641 5.71841 7.67099 5.50995 7.13176C5.30141 6.59235 5.2464 5.99704 5.35309 5.42239C5.45976 4.84782 5.72233 4.32443 6.10279 3.91679C6.4829 3.50952 6.96289 3.23652 7.47993 3.12632C7.99663 3.01621 8.53263 3.07235 9.02176 3.28943C9.51142 3.50674 9.93556 3.87731 10.2364 4.35977C10.5375 4.84252 10.7 5.41341 10.7 6C10.7 6.78741 10.4077 7.53622 9.89721 8.08321C9.38778 8.62903 8.70452 8.92857 8 8.92857ZM8 11.5C5.57399 11.5 3.69337 10.4435 2.41185 9.20095C1.77025 8.57889 1.28485 7.91551 0.962397 7.32712C0.630889 6.72222 0.5 6.24899 0.5 6C0.5 5.91663 0.530417 5.75969 0.628293 5.52548C0.722887 5.29912 0.867608 5.03097 1.0618 4.73522C1.45003 4.14397 2.01751 3.47049 2.71901 2.83595C4.13173 1.55809 6.01695 0.5 8 0.5C9.98305 0.5 11.8683 1.55809 13.281 2.83595C13.9825 3.47049 14.55 4.14397 14.9382 4.73522C15.1324 5.03097 15.2771 5.29912 15.3717 5.52548C15.4696 5.75969 15.5 5.91663 15.5 6C15.5 6.24899 15.3691 6.72222 15.0376 7.32712C14.7151 7.91551 14.2297 8.57889 13.5882 9.20095C12.3066 10.4435 10.426 11.5 8 11.5Z" stroke="#4B5563"/>
</svg>
