<svg width="158" height="41" viewBox="0 0 158 41" fill="none" xmlns="http://www.w3.org/2000/svg">
<path d="M7.2838 27.3884H4.20227L0 23.2801V4.1088L4.20227 0.000514888H7.2838V27.3879V27.3884ZM19.6094 0.00102978L23.8117 4.10932V8.21761H18.4892L16.2482 6.02676H8.40402V0.00102978H19.6099H19.6094ZM16.2482 21.3627L18.4892 19.1718H23.8117V23.2801L19.6094 27.3884H8.40349V21.3632H16.2477L16.2482 21.3627ZM40.0604 27.3884H36.9788L32.7766 23.2801V4.1088L36.9788 0.000514888H40.0604V27.3879V27.3884ZM53.2265 0.00102978L57.4288 4.10932V23.2807L53.2265 27.3889H41.1801V21.3637H50.1445V6.02625H41.1801V0.00102978H53.2265ZM73.6775 27.3884H70.596L66.3937 23.2801V0H73.6775V27.3874V27.3884ZM74.7983 0.00102978H90.2059V6.02625H74.7983V0.00102978ZM87.9644 10.6813V16.7066H74.7972V10.6813H87.9644ZM74.7983 27.3884V21.3632H90.2059V27.3884H74.7983ZM106.454 27.3884H103.373L99.1703 23.2801V0H106.454V27.3874V27.3884ZM116.538 0.00102978H123.822V23.2807L119.62 27.3889H107.573V21.3637H116.538V0.00102978H116.538ZM140.071 10.6813H153.798L158 14.7896V23.2796L153.798 27.3879H150.716V16.7066H136.989L132.787 12.5983V4.10829L136.989 0H140.071V10.6813ZM153.798 0.00102978L158 4.10932V8.21761H152.678L150.437 6.02676H141.192V0.00102978H153.798H153.798ZM149.595 21.3627V27.3879H136.989L132.787 23.2796V19.1713H138.109L140.35 21.3622H149.595L149.595 21.3627Z" fill="white"/>
<path d="M17.5015 40.7885H15.7998V34.3889H17.5015V40.7885ZM21.6911 35.3492V37.5889L20.7094 38.5487L21.6911 40.0208V40.7885H20.1201L18.7586 38.6125H17.7637V37.2048H19.9894V35.7971H17.7637V34.3894H20.7094L21.6911 35.3492ZM25.946 40.7885V39.5084H26.4695V35.6689H25.946V34.3889H28.6952V35.6689H28.1717V39.5084H28.6952V40.7885H25.946ZM34.6518 36.8851H37.8592L38.8409 37.8448V39.8287L37.8592 40.7885H37.1393V38.2928H33.9319L32.9502 37.333V35.3492L33.9319 34.3894H34.6518V36.8851ZM37.8592 34.3889L38.8409 35.3487V36.3084H37.5975L37.074 35.7966H34.9136V34.3889H37.8592ZM36.8775 39.3808V40.7885H33.9319L32.9502 39.8287V38.869H34.1936L34.7171 39.3808H36.8775ZM44.994 40.7885H43.2923V34.3889H44.994V40.7885ZM49.1836 34.3889V35.1566L47.6521 37.5884L49.1836 40.0202V40.7879H47.6126L46.12 38.2923H45.3216V36.8846H46.12L47.6126 34.3889H49.1836ZM61.555 36.8851H64.7624L65.7441 37.8448V39.8287L64.7624 40.7885H64.0425V38.2928H60.8351L59.8534 37.333V35.3492L60.8351 34.3894H61.555V36.8851ZM64.7624 34.3889L65.7441 35.3487V36.3084H64.5007L63.9772 35.7966H61.8168V34.3889H64.7624ZM63.7807 39.3808V40.7885H60.8351L59.8534 39.8287V38.869H61.0968L61.6203 39.3808H63.7807ZM71.8977 40.7885H71.1778L70.196 39.8287V35.3492L71.1778 34.3894H71.8977V40.789V40.7885ZM74.974 34.3889L75.9557 35.3487V39.8282L74.974 40.7879H72.1595V39.3802H74.254V35.7966H72.1595V34.3889H74.974ZM82.1092 40.7885H81.3893L80.4076 39.8287V34.3889H82.1092V40.7885ZM82.371 39.3808H85.6437V40.7885H82.371V39.3808ZM91.4697 40.7885H90.7497L89.768 39.8287V34.3889H91.4697V40.7885ZM93.826 34.3889H95.5277V39.8287L94.546 40.7885H91.7314V39.3808H93.826V34.3889ZM101.184 34.3889V35.7966H99.5209V34.3889H101.184ZM101.445 34.3889H105.085V35.7966H103.147V40.7885H101.445V34.3889ZM108.881 40.7885V39.5084H109.405V35.6689H108.881V34.3889H111.63V35.6689H111.107V39.5084H111.63V40.7885H108.881ZM117.588 40.7885H116.868L115.886 39.8287V35.3492L116.868 34.3894H117.588V40.789V40.7885ZM120.664 34.3889L121.646 35.3487V39.8282L120.664 40.7879H117.849V39.3802H119.944V35.7966H117.849V34.3889H120.664ZM130.155 34.3889H131.857V40.7885H130.351L126.096 34.8111V34.3889H127.602L130.155 37.9468V34.3889H130.155ZM126.097 35.2338L127.799 37.6147V40.789H126.097V35.2344V35.2338ZM138.01 36.8851H141.218L142.199 37.8448V39.8287L141.218 40.7885H140.498V38.2928H137.29L136.309 37.333V35.3492L137.29 34.3894H138.01V36.8851ZM141.218 34.3889L142.2 35.3487V36.3084H140.956L140.433 35.7966H138.272V34.3889H141.218ZM140.236 39.3808V40.7885H137.29L136.309 39.8287V38.869H137.552L138.075 39.3808H140.236Z" fill="white"/>
</svg>
