<svg width="24" height="48" viewBox="0 0 24 48" fill="none" xmlns="http://www.w3.org/2000/svg">
<g clip-path="url(#clip0_1055_3408)">
<path d="M7.2838 27.3884H4.20227L0 23.2801V4.1088L4.20227 0.000514888H7.2838V27.3879V27.3884ZM19.6094 0.00102978L23.8117 4.10932V8.21761H18.4892L16.2482 6.02676H8.40402V0.00102978H19.6099H19.6094ZM16.2482 21.3627L18.4892 19.1718H23.8117V23.2801L19.6094 27.3884H8.40349V21.3632H16.2477L16.2482 21.3627ZM40.0604 27.3884H36.9788L32.7766 23.2801V4.1088L36.9788 0.000514888H40.0604V27.3879V27.3884ZM53.2265 0.00102978L57.4288 4.10932V23.2807L53.2265 27.3889H41.1801V21.3637H50.1445V6.02625H41.1801V0.00102978H53.2265ZM73.6775 27.3884H70.596L66.3937 23.2801V0H73.6775V27.3874V27.3884ZM74.7983 0.00102978H90.2059V6.02625H74.7983V0.00102978ZM87.9644 10.6813V16.7066H74.7972V10.6813H87.9644ZM74.7983 27.3884V21.3632H90.2059V27.3884H74.7983ZM106.454 27.3884H103.373L99.1703 23.2801V0H106.454V27.3874V27.3884ZM116.538 0.00102978H123.822V23.2807L119.62 27.3889H107.573V21.3637H116.538V0.00102978H116.538ZM140.071 10.6813H153.798L158 14.7896V23.2796L153.798 27.3879H150.716V16.7066H136.989L132.787 12.5983V4.10829L136.989 0H140.071V10.6813ZM153.798 0.00102978L158 4.10932V8.21761H152.678L150.437 6.02676H141.192V0.00102978H153.798H153.798ZM149.595 21.3627V27.3879H136.989L132.787 23.2796V19.1713H138.109L140.35 21.3622H149.595L149.595 21.3627Z" fill="white"/>
</g>
<defs>
<clipPath id="clip0_1055_3408">
<rect width="24" height="48" fill="white"/>
</clipPath>
</defs>
</svg>
