<svg width="9" height="10" viewBox="0 0 9 10" fill="none" xmlns="http://www.w3.org/2000/svg">
<path d="M8.00008 5.58341H5.08341V8.50008C5.08341 8.82091 4.82091 9.08341 4.50008 9.08341C4.17925 9.08341 3.91675 8.82091 3.91675 8.50008V5.58341H1.00008C0.679248 5.58341 0.416748 5.32091 0.416748 5.00008C0.416748 4.67925 0.679248 4.41675 1.00008 4.41675H3.91675V1.50008C3.91675 1.17925 4.17925 0.916748 4.50008 0.916748C4.82091 0.916748 5.08341 1.17925 5.08341 1.50008V4.41675H8.00008C8.32091 4.41675 8.58341 4.67925 8.58341 5.00008C8.58341 5.32091 8.32091 5.58341 8.00008 5.58341Z" fill="white"/>
</svg>
