<svg width="17" height="17" viewBox="0 0 17 17" fill="none" xmlns="http://www.w3.org/2000/svg">
<path d="M3.58759 6.18192H0.896897C0.659025 6.18192 0.430896 6.27068 0.262695 6.42867C0.0944942 6.58667 0 6.80096 0 7.02439V14.6067C0 15.0536 0.188988 15.4821 0.52539 15.7981C0.861792 16.1141 1.31805 16.2916 1.79379 16.2916H2.69069C3.16644 16.2916 3.62269 16.1141 3.9591 15.7981C4.2955 15.4821 4.48449 15.0536 4.48449 14.6067V7.02439C4.48449 6.80096 4.38999 6.58667 4.22179 6.42867C4.05359 6.27068 3.82546 6.18192 3.58759 6.18192Z" fill="#046C4E"/>
<path d="M15.206 6.18192H11.6597L13.057 2.39077C13.1029 2.04385 13.0181 1.6928 12.8174 1.39841C12.6167 1.10403 12.3127 0.88485 11.9581 0.778844C11.6034 0.672838 11.2205 0.68668 10.8756 0.817972C10.5307 0.949265 10.2455 1.18974 10.0695 1.49774C9.03281 3.15956 7.75706 4.67911 6.27828 6.01342V14.0894H6.38053C8.27208 14.5806 10.7762 15.4492 13.0947 15.4492C14.3504 15.4492 14.5226 15.006 14.7809 14.3396L16.8922 8.44228C16.9906 8.18775 17.0223 7.91468 16.9845 7.6462C16.9468 7.37772 16.8407 7.12174 16.6752 6.89996C16.5098 6.67817 16.2899 6.49712 16.0341 6.37212C15.7784 6.24713 15.4943 6.18188 15.206 6.18192Z" fill="#046C4E"/>
</svg>
