<svg width="12" height="10" viewBox="0 0 12 10" fill="none" xmlns="http://www.w3.org/2000/svg">
<path d="M4.29324 9.99999C4.0974 10.0009 3.90902 9.90894 3.7684 9.74369L0.226464 5.57747C0.155867 5.49392 0.0995364 5.39434 0.0606889 5.2844C0.0218415 5.17446 0.00123773 5.05633 5.41344e-05 4.93674C-0.00233624 4.69522 0.0745209 4.46244 0.213718 4.28961C0.352915 4.11678 0.543049 4.01806 0.742294 4.01516C0.941538 4.01226 1.13357 4.10543 1.27615 4.27416L4.29624 7.82508L10.7233 0.258806C10.8661 0.0900745 11.0583 -0.00299449 11.2577 7.3515e-05C11.4571 0.00314152 11.6473 0.102095 11.7865 0.275166C11.9257 0.448236 12.0025 0.681246 11.9999 0.922937C11.9974 1.16463 11.9158 1.3952 11.773 1.56393L4.81809 9.74369C4.67747 9.90894 4.48909 10.0009 4.29324 9.99999Z" fill="#0E9F6E"/>
</svg>
