<svg width="17" height="17" viewBox="0 0 17 17" fill="none" xmlns="http://www.w3.org/2000/svg">
<path d="M16.9347 6.39402C16.8605 6.1521 16.7224 5.93691 16.5363 5.77316C16.3501 5.60941 16.1235 5.50375 15.8824 5.46829L11.5891 4.81745L9.66898 0.758963C9.56138 0.531173 9.3948 0.339355 9.1881 0.205222C8.9814 0.0710897 8.74283 0 8.4994 0C8.25597 0 8.0174 0.0710897 7.8107 0.205222C7.604 0.339355 7.43741 0.531173 7.32981 0.758963L5.40968 4.81745L1.11639 5.46829C0.875656 5.50493 0.64954 5.61105 0.463571 5.77467C0.277601 5.93828 0.139185 6.15288 0.0639538 6.39423C-0.0112778 6.63558 -0.0203287 6.89406 0.0378231 7.14049C0.0959749 7.38692 0.219013 7.61149 0.393044 7.78882L3.50061 10.9482L2.76707 15.4083C2.72525 15.6587 2.75158 15.9162 2.84306 16.1518C2.93455 16.3873 3.08752 16.5913 3.2846 16.7406C3.48168 16.89 3.71496 16.9787 3.95794 16.9966C4.20092 17.0146 4.44386 16.961 4.65914 16.8422L8.4994 14.7362L12.3397 16.8422C12.555 16.96 12.7977 17.0126 13.0402 16.9942C13.2828 16.9758 13.5155 16.887 13.7123 16.7379C13.9091 16.5888 14.0619 16.3853 14.1537 16.1504C14.2455 15.9155 14.2725 15.6584 14.2317 15.4083L13.4982 10.9482L16.6058 7.78794C16.7807 7.61135 16.9043 7.3869 16.9625 7.14035C17.0207 6.8938 17.011 6.63513 16.9347 6.39402Z" fill="#E3A008"/>
</svg>
